<?xml version="1.0" encoding="UTF-8"?>
<svg id="Layer_1" xmlns="http://www.w3.org/2000/svg" version="1.1" xmlns:xlink="http://www.w3.org/1999/xlink" viewBox="0 0 615.51 428.4">
  <!-- Generator: Adobe Illustrator 30.6.0, SVG Export Plug-In . SVG Version: 2.1.4 Build 75)  -->
  <defs>
    <style>
      .st0 {
        fill: url(#linear-gradient2);
      }

      .st1 {
        fill: url(#linear-gradient1);
      }

      .st2 {
        fill: url(#linear-gradient9);
      }

      .st3 {
        fill: url(#linear-gradient8);
      }

      .st4 {
        opacity: .36;
      }

      .st5 {
        fill: url(#linear-gradient7);
      }

      .st6 {
        fill: url(#linear-gradient4);
      }

      .st7 {
        fill: url(#linear-gradient5);
      }

      .st8 {
        fill: url(#linear-gradient3);
      }

      .st9 {
        fill: url(#linear-gradient6);
      }

      .st10 {
        fill: url(#linear-gradient);
      }
    </style>
    <linearGradient id="linear-gradient" x1="332.97" y1="383.61" x2="206.25" y2="164.11" gradientTransform="translate(94.12 538.15) rotate(-89.59)" gradientUnits="userSpaceOnUse">
      <stop offset="0" stop-color="#fdfeff" stop-opacity="0"/>
      <stop offset=".17" stop-color="#f9fcfe" stop-opacity=".01"/>
      <stop offset=".31" stop-color="#eef7fc" stop-opacity=".06"/>
      <stop offset=".44" stop-color="#dcf0f9" stop-opacity=".14"/>
      <stop offset=".56" stop-color="#c1e5f4" stop-opacity=".25"/>
      <stop offset=".68" stop-color="#a0d6ef" stop-opacity=".39"/>
      <stop offset=".79" stop-color="#77c5e8" stop-opacity=".57"/>
      <stop offset=".9" stop-color="#47b1e0" stop-opacity=".77"/>
      <stop offset="1" stop-color="#129bd7"/>
    </linearGradient>
    <linearGradient id="linear-gradient1" x1="248.94" y1="507.37" x2="90.62" y2="233.15" xlink:href="#linear-gradient"/>
    <linearGradient id="linear-gradient2" x1="426.13" y1="506.75" x2="312.25" y2="309.5" xlink:href="#linear-gradient"/>
    <linearGradient id="linear-gradient3" x1="471.79" y1="302.28" x2="391.69" y2="163.53" xlink:href="#linear-gradient"/>
    <linearGradient id="linear-gradient4" x1="346.73" y1="555.17" x2="232.74" y2="357.73" xlink:href="#linear-gradient"/>
    <linearGradient id="linear-gradient5" x1="302.47" y1="209.98" x2="234.12" y2="91.6" xlink:href="#linear-gradient"/>
    <linearGradient id="linear-gradient6" x1="222.2" y1="138.55" x2="121" y2="-36.72" xlink:href="#linear-gradient"/>
    <linearGradient id="linear-gradient7" x1="391.12" y1="94.24" x2="317.7" y2="-32.94" xlink:href="#linear-gradient"/>
    <linearGradient id="linear-gradient8" x1="450.88" y1="259.17" x2="368.74" y2="116.9" xlink:href="#linear-gradient"/>
    <linearGradient id="linear-gradient9" x1="341.93" y1="13.87" x2="269.79" y2="-111.07" xlink:href="#linear-gradient"/>
  </defs>
  <g class="st4">
    <g>
      <g>
        <path class="st10" d="M310.93,271.38c.62-70.93,53.68-130.88,122.86-144.25,39.43,59.5,31.51,139.12-18.79,190.1l-105.38,103.77,1.31-149.62ZM408.48,309.16c45.24-44.73,52.74-115.81,20.64-170.48-62.6,14.79-107.17,70.89-108.33,135.3l-.67,122.56,88.37-87.38Z"/>
        <path class="st1" d="M421.83,322.85c50.83-49.99,131.19-55.31,189.59-15.64-14.65,70.49-77.03,121.68-149.18,121.19l-146.72-1.01,106.3-104.54ZM466.21,418.22c63.34-1.77,117.98-45.23,133.68-106.34-54.41-33.05-124.62-25.61-171.03,18l-88.53,87.39,125.88.95Z"/>
        <path class="st0" d="M457.94,124.43l151.56,1.09-168.04,165.33c29.65-52.36,29.08-114.04-2.77-164.42,6.45-1.36,12.51-1.45,19.25-2ZM468.83,249.81l116.07-114.36-129.76-.8c18.09,35.96,22.7,75.12,13.69,115.17Z"/>
        <path class="st8" d="M311.06,236.81L312.6.05l100.93,102.32c6.45,6.67,12.62,13.01,17.27,20.85-59.05,12.55-103.93,56.08-119.74,113.59ZM410.78,114l-88.2-89.41-1.06,163.01c22.11-34.04,53.31-58.16,91.36-70.17.38-1.49-1.23-2.01-2.1-3.44Z"/>
        <path class="st6" d="M447.54,297.48l167.97-165.88-.98,148.61c-.47,7.55-.47,14.57-2.5,22.03-50.61-32.63-112.17-33.61-164.49-4.76ZM604.26,285.85l.94-129.82-116.08,114.54c39.82-8.42,78.94-3.46,115.14,15.28Z"/>
      </g>
      <g>
        <path class="st7" d="M302.88,420.95l-103.9-105.25c-49.57-51.69-56.36-131.41-16.1-190.35,68.98,14.34,121.19,75.03,120.81,145.97l-.81,149.63ZM292.74,396.34l1.06-122.56c-.25-64.42-44.02-121.14-106.41-136.81-32.88,54.21-26.38,125.39,18.22,170.76l87.13,88.62Z"/>
        <path class="st9" d="M296.9,427.26l-146.72-1.07c-72.14-.53-133.8-52.59-147.45-123.28,58.96-38.84,139.23-32.38,189.35,18.32l104.81,106.03ZM272.23,416.79l-87.28-88.63c-45.78-44.27-115.88-52.7-170.76-20.42,14.83,61.32,68.85,105.55,132.16,108.22l125.88.83Z"/>
        <path class="st5" d="M178,124.59c-32.56,49.92-34.01,111.59-5.1,164.36L7.22,121.26l151.56,1.05c6.73.65,12.79.83,19.22,2.27ZM161.44,132.57l-129.75-1.03,114.44,115.99c-8.44-40.17-3.28-79.26,15.32-114.96Z"/>
        <path class="st3" d="M185.93,121.49c4.76-7.77,11.01-14.02,17.56-20.6L305.86,0l-1.81,236.76c-15-57.73-59.25-101.89-118.12-115.27ZM203.94,115.95c37.88,12.54,68.73,37.1,90.36,71.45l1.25-163.01-89.45,88.15c-.89,1.41-2.51,1.91-2.15,3.41Z"/>
        <path class="st2" d="M2.19,297.92c-1.93-7.49-1.83-14.51-2.19-22.06L1.12,127.25l165.61,168.24c-51.91-29.59-113.48-29.48-164.54,2.43ZM125.54,268L11.09,151.83l-.9,129.82c36.46-18.22,75.65-22.63,115.35-13.65Z"/>
      </g>
    </g>
  </g>
</svg>